<?xml version="1.0" encoding="UTF-8" standalone="no"?>
<!-- Created with Inkscape (http://www.inkscape.org/) -->

<svg
   xmlns:dc="http://purl.org/dc/elements/1.1/"
   xmlns:cc="http://creativecommons.org/ns#"
   xmlns:rdf="http://www.w3.org/1999/02/22-rdf-syntax-ns#"
   xmlns:svg="http://www.w3.org/2000/svg"
   xmlns="http://www.w3.org/2000/svg"
   xmlns:sodipodi="http://sodipodi.sourceforge.net/DTD/sodipodi-0.dtd"
   xmlns:inkscape="http://www.inkscape.org/namespaces/inkscape"
   width="210mm"
   height="297mm"
   viewBox="0 0 210 297"
   version="1.1"
   id="svg5480"
   sodipodi:docname="mainlogo.svg"
   inkscape:version="0.92.4 5da689c313, 2019-01-14">
  <defs
     id="defs5474">
    <clipPath
       clipPathUnits="userSpaceOnUse"
       id="clipPath1380-3">
      <path
         d="m 66.87,134.968 -9.519,15.876 c -1.171,-11.653 -8.79,-12.495 -12.68,-12.137 v 0 l 13.389,-19.42 -0.015,10e-4 8.822,-13.105 0.003,0.004 0.003,-0.004 8.823,13.105 -0.016,-10e-4 13.388,19.42 c -4.353,-1.064 -13.481,0.897 -13.227,12.137 v 0 z"
         id="path1378-6"
         inkscape:connector-curvature="0" />
    </clipPath>
    <linearGradient
       x1="0"
       y1="0"
       x2="1"
       y2="0"
       gradientUnits="userSpaceOnUse"
       gradientTransform="matrix(44.396481,0,0,-44.396481,44.671814,128.51372)"
       spreadMethod="pad"
       id="linearGradient1400">
      <stop
         style="stop-opacity:1;stop-color:#9d1519"
         offset="0"
         id="stop1386" />
      <stop
         style="stop-opacity:1;stop-color:#bf1e24"
         offset="0.37078532"
         id="stop1388" />
      <stop
         style="stop-opacity:1;stop-color:#bf1e24"
         offset="0.537635"
         id="stop1390" />
      <stop
         style="stop-opacity:1;stop-color:#bf1e24"
         offset="0.66010889"
         id="stop1392" />
      <stop
         style="stop-opacity:1;stop-color:#9d1519"
         offset="0.882542"
         id="stop1394" />
      <stop
         style="stop-opacity:1;stop-color:#9d1519"
         offset="0.96354808"
         id="stop1396" />
      <stop
         style="stop-opacity:1;stop-color:#9d1519"
         offset="1"
         id="stop1398" />
    </linearGradient>
    <clipPath
       clipPathUnits="userSpaceOnUse"
       id="clipPath722-1">
      <path
         d="m 99.966,123.929 c 0.106,-0.764 0.422,-3.339 0.429,-3.9 v 0 c 1.845,1.686 3.529,4.33 4.126,5.224 v 0 c -0.724,-0.809 -2.407,-1.401 -4.555,-1.324"
         id="path720-2"
         inkscape:connector-curvature="0" />
    </clipPath>
    <linearGradient
       x1="0"
       y1="0"
       x2="1"
       y2="0"
       gradientUnits="userSpaceOnUse"
       gradientTransform="matrix(-6.1858172,0,0,-6.1858172,105.02541,122.64141)"
       spreadMethod="pad"
       id="linearGradient742">
      <stop
         style="stop-opacity:1;stop-color:#9d1519"
         offset="0"
         id="stop728" />
      <stop
         style="stop-opacity:1;stop-color:#bf1e24"
         offset="0.37078532"
         id="stop730" />
      <stop
         style="stop-opacity:1;stop-color:#bf1e24"
         offset="0.537635"
         id="stop732" />
      <stop
         style="stop-opacity:1;stop-color:#bf1e24"
         offset="0.69418073"
         id="stop734" />
      <stop
         style="stop-opacity:1;stop-color:#9d1519"
         offset="0.978494"
         id="stop736" />
      <stop
         style="stop-opacity:1;stop-color:#9d1519"
         offset="0.99332583"
         id="stop738" />
      <stop
         style="stop-opacity:1;stop-color:#9d1519"
         offset="1"
         id="stop740" />
    </linearGradient>
    <clipPath
       clipPathUnits="userSpaceOnUse"
       id="clipPath710-2">
      <path
         d="M 0,252 H 504 V 0 H 0 Z"
         id="path708-6"
         inkscape:connector-curvature="0" />
    </clipPath>
    <clipPath
       clipPathUnits="userSpaceOnUse"
       id="clipPath680-1">
      <path
         d="m 93.744,145.51 c 0.718,-0.731 1.569,-1.523 2.093,-2.283 v 0 c 1.235,-1.797 1.225,-3.903 1.086,-6.005 v 0 c -0.276,-4.17 0.473,-6.072 3.264,-8.963 v 0 c 1.137,-1.177 3.611,-2.338 4.699,-2.083 v 0 c -0.887,2.829 -1.95,7.562 -2.222,10.129 v 0 c -0.387,3.653 -4.027,9.226 -8.448,9.226 v 0 c -0.157,0 -0.314,-0.007 -0.472,-0.021 m 5.981,-6.582 c -0.728,-5.487 0.394,-8.606 0.394,-8.606 v 0 c -3.499,4.084 -0.394,8.606 -0.394,8.606"
         id="path678-8"
         inkscape:connector-curvature="0" />
    </clipPath>
    <linearGradient
       x1="0"
       y1="0"
       x2="1"
       y2="0"
       gradientUnits="userSpaceOnUse"
       gradientTransform="matrix(10.531704,-29.134087,-29.134087,-10.531704,94.811516,149.08185)"
       spreadMethod="pad"
       id="linearGradient700">
      <stop
         style="stop-opacity:1;stop-color:#9d1519"
         offset="0"
         id="stop686" />
      <stop
         style="stop-opacity:1;stop-color:#bf1e24"
         offset="0.30772488"
         id="stop688" />
      <stop
         style="stop-opacity:1;stop-color:#bf1e24"
         offset="0.446198"
         id="stop690" />
      <stop
         style="stop-opacity:1;stop-color:#bf1e24"
         offset="0.62743509"
         id="stop692" />
      <stop
         style="stop-opacity:1;stop-color:#9d1519"
         offset="0.956592"
         id="stop694" />
      <stop
         style="stop-opacity:1;stop-color:#9d1519"
         offset="0.98652876"
         id="stop696" />
      <stop
         style="stop-opacity:1;stop-color:#9d1519"
         offset="1"
         id="stop698" />
    </linearGradient>
    <clipPath
       clipPathUnits="userSpaceOnUse"
       id="clipPath650-5">
      <path
         d="m 96.218,127.326 c 2.949,-3.397 5.792,-3.157 8.625,-1.594 v 0 c -3.451,0.455 -4.069,0.813 -6.412,3.059 v 0 c -2.18,1.985 -2.669,6.541 -1.985,7.68 v 0 c -1.465,-1.301 -2.069,-6.679 -0.228,-9.145"
         id="path648-9"
         inkscape:connector-curvature="0" />
    </clipPath>
    <linearGradient
       x1="0"
       y1="0"
       x2="1"
       y2="0"
       gradientUnits="userSpaceOnUse"
       gradientTransform="matrix(-14.375977,10.67584,-10.67584,-14.375977,105.86697,124.65821)"
       spreadMethod="pad"
       id="linearGradient670">
      <stop
         style="stop-opacity:1;stop-color:#9d1519"
         offset="0"
         id="stop656" />
      <stop
         style="stop-opacity:1;stop-color:#bf1e24"
         offset="0.37078532"
         id="stop658" />
      <stop
         style="stop-opacity:1;stop-color:#bf1e24"
         offset="0.537635"
         id="stop660" />
      <stop
         style="stop-opacity:1;stop-color:#bf1e24"
         offset="0.69418073"
         id="stop662" />
      <stop
         style="stop-opacity:1;stop-color:#9d1519"
         offset="0.978494"
         id="stop664" />
      <stop
         style="stop-opacity:1;stop-color:#9d1519"
         offset="0.99332583"
         id="stop666" />
      <stop
         style="stop-opacity:1;stop-color:#9d1519"
         offset="1"
         id="stop668" />
    </linearGradient>
    <clipPath
       clipPathUnits="userSpaceOnUse"
       id="clipPath620-1">
      <path
         d="m 100.451,118.212 c 6.981,-1.782 13.075,-2.463 16.264,1.86 v 0 c 1.796,2.436 -0.149,12.524 -1.832,15.197 v 0 c 0.396,-15.098 -8.514,-14.752 -14.432,-17.057"
         id="path618-2"
         inkscape:connector-curvature="0" />
    </clipPath>
    <linearGradient
       x1="0"
       y1="0"
       x2="1"
       y2="0"
       gradientUnits="userSpaceOnUse"
       gradientTransform="matrix(-1.8223385,17.745588,-17.745588,-1.8223385,109.42409,116.77554)"
       spreadMethod="pad"
       id="linearGradient640">
      <stop
         style="stop-opacity:1;stop-color:#9d1519"
         offset="0"
         id="stop626" />
      <stop
         style="stop-opacity:1;stop-color:#bf1e24"
         offset="0.37078532"
         id="stop628" />
      <stop
         style="stop-opacity:1;stop-color:#bf1e24"
         offset="0.537635"
         id="stop630" />
      <stop
         style="stop-opacity:1;stop-color:#bf1e24"
         offset="0.66010889"
         id="stop632" />
      <stop
         style="stop-opacity:1;stop-color:#9d1519"
         offset="0.882542"
         id="stop634" />
      <stop
         style="stop-opacity:1;stop-color:#9d1519"
         offset="0.96354808"
         id="stop636" />
      <stop
         style="stop-opacity:1;stop-color:#9d1519"
         offset="1"
         id="stop638" />
    </linearGradient>
    <clipPath
       clipPathUnits="userSpaceOnUse"
       id="clipPath608-4">
      <path
         d="M 0,252 H 504 V 0 H 0 Z"
         id="path606-5"
         inkscape:connector-curvature="0" />
    </clipPath>
    <clipPath
       clipPathUnits="userSpaceOnUse"
       id="clipPath578-0">
      <path
         d="m 32.422,120.029 c 0.007,0.561 0.323,3.136 0.429,3.9 v 0 c -2.148,-0.077 -3.831,0.515 -4.555,1.324 v 0 c 0.597,-0.894 2.281,-3.538 4.126,-5.224"
         id="path576-3"
         inkscape:connector-curvature="0" />
    </clipPath>
    <linearGradient
       x1="0"
       y1="0"
       x2="1"
       y2="0"
       gradientUnits="userSpaceOnUse"
       gradientTransform="matrix(6.1858172,0,0,-6.1858172,27.79109,122.64141)"
       spreadMethod="pad"
       id="linearGradient598">
      <stop
         style="stop-opacity:1;stop-color:#9d1519"
         offset="0"
         id="stop584" />
      <stop
         style="stop-opacity:1;stop-color:#bf1e24"
         offset="0.37078532"
         id="stop586" />
      <stop
         style="stop-opacity:1;stop-color:#bf1e24"
         offset="0.537635"
         id="stop588" />
      <stop
         style="stop-opacity:1;stop-color:#bf1e24"
         offset="0.69418073"
         id="stop590" />
      <stop
         style="stop-opacity:1;stop-color:#9d1519"
         offset="0.978494"
         id="stop592" />
      <stop
         style="stop-opacity:1;stop-color:#9d1519"
         offset="0.99332583"
         id="stop594" />
      <stop
         style="stop-opacity:1;stop-color:#9d1519"
         offset="1"
         id="stop596" />
    </linearGradient>
    <clipPath
       clipPathUnits="userSpaceOnUse"
       id="clipPath252-6">
      <path
         d="m 30.153,136.305 c -0.272,-2.567 -1.335,-7.3 -2.223,-10.129 v 0 c 1.088,-0.255 3.562,0.906 4.7,2.083 v 0 c 2.79,2.891 3.539,4.793 3.264,8.963 v 0 c -0.14,2.102 -0.15,4.208 1.086,6.005 v 0 c 0.524,0.76 1.374,1.552 2.093,2.283 v 0 c -0.158,0.014 -0.316,0.021 -0.472,0.021 v 0 c -4.421,0.001 -8.061,-5.572 -8.448,-9.226 m 2.938,2.623 c 0,0 3.105,-4.522 -0.393,-8.606 v 0 c 0,0 1.121,3.119 0.393,8.606"
         id="path250-1"
         inkscape:connector-curvature="0" />
    </clipPath>
    <linearGradient
       x1="0"
       y1="0"
       x2="1"
       y2="0"
       gradientUnits="userSpaceOnUse"
       gradientTransform="matrix(-10.531704,-29.134087,29.134087,-10.531704,38.004982,149.08185)"
       spreadMethod="pad"
       id="linearGradient272">
      <stop
         style="stop-opacity:1;stop-color:#9d1519"
         offset="0"
         id="stop258" />
      <stop
         style="stop-opacity:1;stop-color:#bf1e24"
         offset="0.30772488"
         id="stop260" />
      <stop
         style="stop-opacity:1;stop-color:#bf1e24"
         offset="0.446198"
         id="stop262" />
      <stop
         style="stop-opacity:1;stop-color:#bf1e24"
         offset="0.62743509"
         id="stop264" />
      <stop
         style="stop-opacity:1;stop-color:#9d1519"
         offset="0.956592"
         id="stop266" />
      <stop
         style="stop-opacity:1;stop-color:#9d1519"
         offset="0.98652876"
         id="stop268" />
      <stop
         style="stop-opacity:1;stop-color:#9d1519"
         offset="1"
         id="stop270" />
    </linearGradient>
    <clipPath
       clipPathUnits="userSpaceOnUse"
       id="clipPath72-9">
      <path
         d="m 34.385,128.791 c -2.342,-2.246 -2.961,-2.604 -6.411,-3.059 v 0 c 2.831,-1.563 5.676,-1.803 8.624,1.594 v 0 c 1.842,2.466 1.237,7.844 -0.227,9.145 v 0 c 0.684,-1.139 0.195,-5.695 -1.986,-7.68"
         id="path70-3"
         inkscape:connector-curvature="0" />
    </clipPath>
    <linearGradient
       x1="0"
       y1="0"
       x2="1"
       y2="0"
       gradientUnits="userSpaceOnUse"
       gradientTransform="matrix(14.375977,10.67584,10.67584,-14.375977,26.949535,124.65821)"
       spreadMethod="pad"
       id="linearGradient92">
      <stop
         style="stop-opacity:1;stop-color:#9d1519"
         offset="0"
         id="stop78" />
      <stop
         style="stop-opacity:1;stop-color:#bf1e24"
         offset="0.37078532"
         id="stop80" />
      <stop
         style="stop-opacity:1;stop-color:#bf1e24"
         offset="0.537635"
         id="stop82" />
      <stop
         style="stop-opacity:1;stop-color:#bf1e24"
         offset="0.69418073"
         id="stop84" />
      <stop
         style="stop-opacity:1;stop-color:#9d1519"
         offset="0.978494"
         id="stop86" />
      <stop
         style="stop-opacity:1;stop-color:#9d1519"
         offset="0.99332583"
         id="stop88" />
      <stop
         style="stop-opacity:1;stop-color:#9d1519"
         offset="1"
         id="stop90" />
    </linearGradient>
    <clipPath
       clipPathUnits="userSpaceOnUse"
       id="clipPath42-4">
      <path
         d="m 16.102,120.072 c 3.188,-4.323 9.283,-3.642 16.264,-1.86 v 0 c -5.919,2.305 -14.829,1.959 -14.433,17.057 v 0 c -1.683,-2.673 -3.628,-12.761 -1.831,-15.197"
         id="path40-4"
         inkscape:connector-curvature="0" />
    </clipPath>
    <linearGradient
       x1="0"
       y1="0"
       x2="1"
       y2="0"
       gradientUnits="userSpaceOnUse"
       gradientTransform="matrix(1.8223385,17.745588,17.745588,-1.8223385,23.39241,116.77554)"
       spreadMethod="pad"
       id="linearGradient62">
      <stop
         style="stop-opacity:1;stop-color:#9d1519"
         offset="0"
         id="stop48" />
      <stop
         style="stop-opacity:1;stop-color:#bf1e24"
         offset="0.37078532"
         id="stop50" />
      <stop
         style="stop-opacity:1;stop-color:#bf1e24"
         offset="0.537635"
         id="stop52" />
      <stop
         style="stop-opacity:1;stop-color:#bf1e24"
         offset="0.66010889"
         id="stop54" />
      <stop
         style="stop-opacity:1;stop-color:#9d1519"
         offset="0.882542"
         id="stop56" />
      <stop
         style="stop-opacity:1;stop-color:#9d1519"
         offset="0.96354808"
         id="stop58" />
      <stop
         style="stop-opacity:1;stop-color:#9d1519"
         offset="1"
         id="stop60" />
    </linearGradient>
    <clipPath
       clipPathUnits="userSpaceOnUse"
       id="clipPath30-4">
      <path
         d="M 0,252 H 504 V 0 H 0 Z"
         id="path28-3"
         inkscape:connector-curvature="0" />
    </clipPath>
    <clipPath
       clipPathUnits="userSpaceOnUse"
       id="clipPath18-1">
      <path
         d="M 0,252 H 504 V 0 H 0 Z"
         id="path16-4"
         inkscape:connector-curvature="0" />
    </clipPath>
    <clipPath
       clipPathUnits="userSpaceOnUse"
       id="clipPath1380-3-9">
      <path
         d="m 66.87,134.968 -9.519,15.876 c -1.171,-11.653 -8.79,-12.495 -12.68,-12.137 v 0 l 13.389,-19.42 -0.015,10e-4 8.822,-13.105 0.003,0.004 0.003,-0.004 8.823,13.105 -0.016,-10e-4 13.388,19.42 c -4.353,-1.064 -13.481,0.897 -13.227,12.137 v 0 z"
         id="path1378-6-2"
         inkscape:connector-curvature="0" />
    </clipPath>
    <linearGradient
       x1="0"
       y1="0"
       x2="1"
       y2="0"
       gradientUnits="userSpaceOnUse"
       gradientTransform="matrix(44.396481,0,0,-44.396481,44.671814,128.51372)"
       spreadMethod="pad"
       id="linearGradient1400-0">
      <stop
         style="stop-opacity:1;stop-color:#9d1519"
         offset="0"
         id="stop1386-6" />
      <stop
         style="stop-opacity:1;stop-color:#bf1e24"
         offset="0.37078532"
         id="stop1388-8" />
      <stop
         style="stop-opacity:1;stop-color:#bf1e24"
         offset="0.537635"
         id="stop1390-9" />
      <stop
         style="stop-opacity:1;stop-color:#bf1e24"
         offset="0.66010889"
         id="stop1392-2" />
      <stop
         style="stop-opacity:1;stop-color:#9d1519"
         offset="0.882542"
         id="stop1394-6" />
      <stop
         style="stop-opacity:1;stop-color:#9d1519"
         offset="0.96354808"
         id="stop1396-6" />
      <stop
         style="stop-opacity:1;stop-color:#9d1519"
         offset="1"
         id="stop1398-4" />
    </linearGradient>
    <clipPath
       clipPathUnits="userSpaceOnUse"
       id="clipPath722-1-9">
      <path
         d="m 99.966,123.929 c 0.106,-0.764 0.422,-3.339 0.429,-3.9 v 0 c 1.845,1.686 3.529,4.33 4.126,5.224 v 0 c -0.724,-0.809 -2.407,-1.401 -4.555,-1.324"
         id="path720-2-5"
         inkscape:connector-curvature="0" />
    </clipPath>
    <linearGradient
       x1="0"
       y1="0"
       x2="1"
       y2="0"
       gradientUnits="userSpaceOnUse"
       gradientTransform="matrix(-6.1858172,0,0,-6.1858172,105.02541,122.64141)"
       spreadMethod="pad"
       id="linearGradient742-0">
      <stop
         style="stop-opacity:1;stop-color:#9d1519"
         offset="0"
         id="stop728-4" />
      <stop
         style="stop-opacity:1;stop-color:#bf1e24"
         offset="0.37078532"
         id="stop730-8" />
      <stop
         style="stop-opacity:1;stop-color:#bf1e24"
         offset="0.537635"
         id="stop732-7" />
      <stop
         style="stop-opacity:1;stop-color:#bf1e24"
         offset="0.69418073"
         id="stop734-1" />
      <stop
         style="stop-opacity:1;stop-color:#9d1519"
         offset="0.978494"
         id="stop736-7" />
      <stop
         style="stop-opacity:1;stop-color:#9d1519"
         offset="0.99332583"
         id="stop738-2" />
      <stop
         style="stop-opacity:1;stop-color:#9d1519"
         offset="1"
         id="stop740-7" />
    </linearGradient>
    <clipPath
       clipPathUnits="userSpaceOnUse"
       id="clipPath710-2-2">
      <path
         d="M 0,252 H 504 V 0 H 0 Z"
         id="path708-6-2"
         inkscape:connector-curvature="0" />
    </clipPath>
    <clipPath
       clipPathUnits="userSpaceOnUse"
       id="clipPath680-1-6">
      <path
         d="m 93.744,145.51 c 0.718,-0.731 1.569,-1.523 2.093,-2.283 v 0 c 1.235,-1.797 1.225,-3.903 1.086,-6.005 v 0 c -0.276,-4.17 0.473,-6.072 3.264,-8.963 v 0 c 1.137,-1.177 3.611,-2.338 4.699,-2.083 v 0 c -0.887,2.829 -1.95,7.562 -2.222,10.129 v 0 c -0.387,3.653 -4.027,9.226 -8.448,9.226 v 0 c -0.157,0 -0.314,-0.007 -0.472,-0.021 m 5.981,-6.582 c -0.728,-5.487 0.394,-8.606 0.394,-8.606 v 0 c -3.499,4.084 -0.394,8.606 -0.394,8.606"
         id="path678-8-1"
         inkscape:connector-curvature="0" />
    </clipPath>
    <linearGradient
       x1="0"
       y1="0"
       x2="1"
       y2="0"
       gradientUnits="userSpaceOnUse"
       gradientTransform="matrix(10.531704,-29.134087,-29.134087,-10.531704,94.811516,149.08185)"
       spreadMethod="pad"
       id="linearGradient700-0">
      <stop
         style="stop-opacity:1;stop-color:#9d1519"
         offset="0"
         id="stop686-6" />
      <stop
         style="stop-opacity:1;stop-color:#bf1e24"
         offset="0.30772488"
         id="stop688-1" />
      <stop
         style="stop-opacity:1;stop-color:#bf1e24"
         offset="0.446198"
         id="stop690-5" />
      <stop
         style="stop-opacity:1;stop-color:#bf1e24"
         offset="0.62743509"
         id="stop692-9" />
      <stop
         style="stop-opacity:1;stop-color:#9d1519"
         offset="0.956592"
         id="stop694-4" />
      <stop
         style="stop-opacity:1;stop-color:#9d1519"
         offset="0.98652876"
         id="stop696-9" />
      <stop
         style="stop-opacity:1;stop-color:#9d1519"
         offset="1"
         id="stop698-0" />
    </linearGradient>
    <clipPath
       clipPathUnits="userSpaceOnUse"
       id="clipPath650-5-9">
      <path
         d="m 96.218,127.326 c 2.949,-3.397 5.792,-3.157 8.625,-1.594 v 0 c -3.451,0.455 -4.069,0.813 -6.412,3.059 v 0 c -2.18,1.985 -2.669,6.541 -1.985,7.68 v 0 c -1.465,-1.301 -2.069,-6.679 -0.228,-9.145"
         id="path648-9-1"
         inkscape:connector-curvature="0" />
    </clipPath>
    <linearGradient
       x1="0"
       y1="0"
       x2="1"
       y2="0"
       gradientUnits="userSpaceOnUse"
       gradientTransform="matrix(-14.375977,10.67584,-10.67584,-14.375977,105.86697,124.65821)"
       spreadMethod="pad"
       id="linearGradient670-7">
      <stop
         style="stop-opacity:1;stop-color:#9d1519"
         offset="0"
         id="stop656-7" />
      <stop
         style="stop-opacity:1;stop-color:#bf1e24"
         offset="0.37078532"
         id="stop658-1" />
      <stop
         style="stop-opacity:1;stop-color:#bf1e24"
         offset="0.537635"
         id="stop660-1" />
      <stop
         style="stop-opacity:1;stop-color:#bf1e24"
         offset="0.69418073"
         id="stop662-5" />
      <stop
         style="stop-opacity:1;stop-color:#9d1519"
         offset="0.978494"
         id="stop664-9" />
      <stop
         style="stop-opacity:1;stop-color:#9d1519"
         offset="0.99332583"
         id="stop666-7" />
      <stop
         style="stop-opacity:1;stop-color:#9d1519"
         offset="1"
         id="stop668-7" />
    </linearGradient>
    <clipPath
       clipPathUnits="userSpaceOnUse"
       id="clipPath620-1-6">
      <path
         d="m 100.451,118.212 c 6.981,-1.782 13.075,-2.463 16.264,1.86 v 0 c 1.796,2.436 -0.149,12.524 -1.832,15.197 v 0 c 0.396,-15.098 -8.514,-14.752 -14.432,-17.057"
         id="path618-2-7"
         inkscape:connector-curvature="0" />
    </clipPath>
    <linearGradient
       x1="0"
       y1="0"
       x2="1"
       y2="0"
       gradientUnits="userSpaceOnUse"
       gradientTransform="matrix(-1.8223385,17.745588,-17.745588,-1.8223385,109.42409,116.77554)"
       spreadMethod="pad"
       id="linearGradient640-3">
      <stop
         style="stop-opacity:1;stop-color:#9d1519"
         offset="0"
         id="stop626-6" />
      <stop
         style="stop-opacity:1;stop-color:#bf1e24"
         offset="0.37078532"
         id="stop628-5" />
      <stop
         style="stop-opacity:1;stop-color:#bf1e24"
         offset="0.537635"
         id="stop630-6" />
      <stop
         style="stop-opacity:1;stop-color:#bf1e24"
         offset="0.66010889"
         id="stop632-3" />
      <stop
         style="stop-opacity:1;stop-color:#9d1519"
         offset="0.882542"
         id="stop634-9" />
      <stop
         style="stop-opacity:1;stop-color:#9d1519"
         offset="0.96354808"
         id="stop636-4" />
      <stop
         style="stop-opacity:1;stop-color:#9d1519"
         offset="1"
         id="stop638-8" />
    </linearGradient>
    <clipPath
       clipPathUnits="userSpaceOnUse"
       id="clipPath608-4-1">
      <path
         d="M 0,252 H 504 V 0 H 0 Z"
         id="path606-5-2"
         inkscape:connector-curvature="0" />
    </clipPath>
    <clipPath
       clipPathUnits="userSpaceOnUse"
       id="clipPath578-0-9">
      <path
         d="m 32.422,120.029 c 0.007,0.561 0.323,3.136 0.429,3.9 v 0 c -2.148,-0.077 -3.831,0.515 -4.555,1.324 v 0 c 0.597,-0.894 2.281,-3.538 4.126,-5.224"
         id="path576-3-3"
         inkscape:connector-curvature="0" />
    </clipPath>
    <linearGradient
       x1="0"
       y1="0"
       x2="1"
       y2="0"
       gradientUnits="userSpaceOnUse"
       gradientTransform="matrix(6.1858172,0,0,-6.1858172,27.79109,122.64141)"
       spreadMethod="pad"
       id="linearGradient598-9">
      <stop
         style="stop-opacity:1;stop-color:#9d1519"
         offset="0"
         id="stop584-0" />
      <stop
         style="stop-opacity:1;stop-color:#bf1e24"
         offset="0.37078532"
         id="stop586-8" />
      <stop
         style="stop-opacity:1;stop-color:#bf1e24"
         offset="0.537635"
         id="stop588-8" />
      <stop
         style="stop-opacity:1;stop-color:#bf1e24"
         offset="0.69418073"
         id="stop590-5" />
      <stop
         style="stop-opacity:1;stop-color:#9d1519"
         offset="0.978494"
         id="stop592-0" />
      <stop
         style="stop-opacity:1;stop-color:#9d1519"
         offset="0.99332583"
         id="stop594-9" />
      <stop
         style="stop-opacity:1;stop-color:#9d1519"
         offset="1"
         id="stop596-6" />
    </linearGradient>
    <clipPath
       clipPathUnits="userSpaceOnUse"
       id="clipPath252-6-3">
      <path
         d="m 30.153,136.305 c -0.272,-2.567 -1.335,-7.3 -2.223,-10.129 v 0 c 1.088,-0.255 3.562,0.906 4.7,2.083 v 0 c 2.79,2.891 3.539,4.793 3.264,8.963 v 0 c -0.14,2.102 -0.15,4.208 1.086,6.005 v 0 c 0.524,0.76 1.374,1.552 2.093,2.283 v 0 c -0.158,0.014 -0.316,0.021 -0.472,0.021 v 0 c -4.421,0.001 -8.061,-5.572 -8.448,-9.226 m 2.938,2.623 c 0,0 3.105,-4.522 -0.393,-8.606 v 0 c 0,0 1.121,3.119 0.393,8.606"
         id="path250-1-8"
         inkscape:connector-curvature="0" />
    </clipPath>
    <linearGradient
       x1="0"
       y1="0"
       x2="1"
       y2="0"
       gradientUnits="userSpaceOnUse"
       gradientTransform="matrix(-10.531704,-29.134087,29.134087,-10.531704,38.004982,149.08185)"
       spreadMethod="pad"
       id="linearGradient272-5">
      <stop
         style="stop-opacity:1;stop-color:#9d1519"
         offset="0"
         id="stop258-6" />
      <stop
         style="stop-opacity:1;stop-color:#bf1e24"
         offset="0.30772488"
         id="stop260-1" />
      <stop
         style="stop-opacity:1;stop-color:#bf1e24"
         offset="0.446198"
         id="stop262-1" />
      <stop
         style="stop-opacity:1;stop-color:#bf1e24"
         offset="0.62743509"
         id="stop264-5" />
      <stop
         style="stop-opacity:1;stop-color:#9d1519"
         offset="0.956592"
         id="stop266-9" />
      <stop
         style="stop-opacity:1;stop-color:#9d1519"
         offset="0.98652876"
         id="stop268-8" />
      <stop
         style="stop-opacity:1;stop-color:#9d1519"
         offset="1"
         id="stop270-4" />
    </linearGradient>
    <clipPath
       clipPathUnits="userSpaceOnUse"
       id="clipPath72-9-8">
      <path
         d="m 34.385,128.791 c -2.342,-2.246 -2.961,-2.604 -6.411,-3.059 v 0 c 2.831,-1.563 5.676,-1.803 8.624,1.594 v 0 c 1.842,2.466 1.237,7.844 -0.227,9.145 v 0 c 0.684,-1.139 0.195,-5.695 -1.986,-7.68"
         id="path70-3-1"
         inkscape:connector-curvature="0" />
    </clipPath>
    <linearGradient
       x1="0"
       y1="0"
       x2="1"
       y2="0"
       gradientUnits="userSpaceOnUse"
       gradientTransform="matrix(14.375977,10.67584,10.67584,-14.375977,26.949535,124.65821)"
       spreadMethod="pad"
       id="linearGradient92-0">
      <stop
         style="stop-opacity:1;stop-color:#9d1519"
         offset="0"
         id="stop78-3" />
      <stop
         style="stop-opacity:1;stop-color:#bf1e24"
         offset="0.37078532"
         id="stop80-0" />
      <stop
         style="stop-opacity:1;stop-color:#bf1e24"
         offset="0.537635"
         id="stop82-4" />
      <stop
         style="stop-opacity:1;stop-color:#bf1e24"
         offset="0.69418073"
         id="stop84-4" />
      <stop
         style="stop-opacity:1;stop-color:#9d1519"
         offset="0.978494"
         id="stop86-4" />
      <stop
         style="stop-opacity:1;stop-color:#9d1519"
         offset="0.99332583"
         id="stop88-4" />
      <stop
         style="stop-opacity:1;stop-color:#9d1519"
         offset="1"
         id="stop90-7" />
    </linearGradient>
    <clipPath
       clipPathUnits="userSpaceOnUse"
       id="clipPath42-4-6">
      <path
         d="m 16.102,120.072 c 3.188,-4.323 9.283,-3.642 16.264,-1.86 v 0 c -5.919,2.305 -14.829,1.959 -14.433,17.057 v 0 c -1.683,-2.673 -3.628,-12.761 -1.831,-15.197"
         id="path40-4-3"
         inkscape:connector-curvature="0" />
    </clipPath>
    <linearGradient
       x1="0"
       y1="0"
       x2="1"
       y2="0"
       gradientUnits="userSpaceOnUse"
       gradientTransform="matrix(1.8223385,17.745588,17.745588,-1.8223385,23.39241,116.77554)"
       spreadMethod="pad"
       id="linearGradient62-1">
      <stop
         style="stop-opacity:1;stop-color:#9d1519"
         offset="0"
         id="stop48-7" />
      <stop
         style="stop-opacity:1;stop-color:#bf1e24"
         offset="0.37078532"
         id="stop50-5" />
      <stop
         style="stop-opacity:1;stop-color:#bf1e24"
         offset="0.537635"
         id="stop52-9" />
      <stop
         style="stop-opacity:1;stop-color:#bf1e24"
         offset="0.66010889"
         id="stop54-6" />
      <stop
         style="stop-opacity:1;stop-color:#9d1519"
         offset="0.882542"
         id="stop56-2" />
      <stop
         style="stop-opacity:1;stop-color:#9d1519"
         offset="0.96354808"
         id="stop58-1" />
      <stop
         style="stop-opacity:1;stop-color:#9d1519"
         offset="1"
         id="stop60-7" />
    </linearGradient>
    <clipPath
       clipPathUnits="userSpaceOnUse"
       id="clipPath30-4-8">
      <path
         d="M 0,252 H 504 V 0 H 0 Z"
         id="path28-3-5"
         inkscape:connector-curvature="0" />
    </clipPath>
    <clipPath
       clipPathUnits="userSpaceOnUse"
       id="clipPath18-1-7">
      <path
         d="M 0,252 H 504 V 0 H 0 Z"
         id="path16-4-4"
         inkscape:connector-curvature="0" />
    </clipPath>
  </defs>
  <sodipodi:namedview
     id="base"
     pagecolor="#ffffff"
     bordercolor="#666666"
     borderopacity="1.0"
     inkscape:pageopacity="0.0"
     inkscape:pageshadow="2"
     inkscape:zoom="0.35"
     inkscape:cx="-138.09215"
     inkscape:cy="892.9065"
     inkscape:document-units="mm"
     inkscape:current-layer="layer1"
     showgrid="false"
     inkscape:window-width="1920"
     inkscape:window-height="1026"
     inkscape:window-x="0"
     inkscape:window-y="0"
     inkscape:window-maximized="1" />
  <metadata
     id="metadata5477">
    <rdf:RDF>
      <cc:Work
         rdf:about="">
        <dc:format>image/svg+xml</dc:format>
        <dc:type
           rdf:resource="http://purl.org/dc/dcmitype/StillImage" />
        <dc:title></dc:title>
      </cc:Work>
    </rdf:RDF>
  </metadata>
  <g
     inkscape:label="Layer 1"
     inkscape:groupmode="layer"
     id="layer1">
    <g
       id="g14"
       clip-path="url(#clipPath18-1)"
       transform="matrix(-1.8182157,0,0,-1.7145491,228.17219,353.18406)"
       style="stroke-width:0.35089859">
      <g
         id="g20"
         transform="translate(141.6126,114.6169)"
         style="stroke-width:0.35089859">
        <path
           sodipodi:nodetypes="csccssscc"
           d="m -40.778,3.019 c -0.34,-18.484 -15.459,-33.404 -34.006,-33.404 -18.56,0 -33.677,14.915 -34.022,33.395 -13.32,-5.399 -16.899,1.52 -17.312,2.452 -0.021,-0.602 -0.055,-1.203 -0.055,-1.808 0,-28.335 23.055,-51.39 51.389,-51.39 28.318,0 51.373,23.055 51.373,51.39 0,0.589 -0.034,1.172 -0.054,1.758 -0.503,-1.094 -4.177,-7.727 -17.313,-2.393"
           style="fill:#ce171e;fill-opacity:1;fill-rule:nonzero;stroke:none;stroke-width:0.35089859"
           id="path22"
           inkscape:connector-curvature="0" />
      </g>
    </g>
    <g
       id="g26"
       clip-path="url(#clipPath30-4)"
       transform="matrix(-1.8182157,0,0,-1.7145491,228.17219,353.18406)"
       style="stroke-width:0.35089859">
      <g
         id="g32"
         transform="translate(32.2672,119.0971)"
         style="stroke-width:0.35089859">
        <path
           d="m 0,0 c -3.2,1.144 -9.743,3.113 -11.586,7.052 -4.567,7.476 0.163,20.014 6.895,26.416 C -11.489,19.543 -7.529,8.626 0,0"
           style="fill:#ce171e;fill-opacity:1;fill-rule:nonzero;stroke:none;stroke-width:0.35089859"
           id="path34"
           inkscape:connector-curvature="0" />
      </g>
    </g>
    <g
       id="g38"
       clip-path="url(#clipPath42-4)"
       transform="matrix(-1.8182157,0,0,-1.7145491,228.17219,353.18406)"
       style="stroke-width:0.35089859">
      <g
         id="g44"
         style="stroke-width:0.35089859">
        <g
           id="g46"
           style="stroke-width:0.35089859">
          <path
             d="m 16.102,120.072 c 3.188,-4.323 9.283,-3.642 16.264,-1.86 v 0 c -5.919,2.305 -14.829,1.959 -14.433,17.057 v 0 c -1.683,-2.673 -3.628,-12.761 -1.831,-15.197"
             style="fill:url(#linearGradient62);stroke:none;stroke-width:0.35089859"
             id="path64"
             inkscape:connector-curvature="0" />
        </g>
      </g>
    </g>
    <g
       id="g68"
       clip-path="url(#clipPath72-9)"
       transform="matrix(-1.8182157,0,0,-1.7145491,228.17219,353.18406)"
       style="stroke-width:0.35089859">
      <g
         id="g74"
         style="stroke-width:0.35089859">
        <g
           id="g76"
           style="stroke-width:0.35089859">
          <path
             d="m 34.385,128.791 c -2.342,-2.246 -2.961,-2.604 -6.411,-3.059 v 0 c 2.831,-1.563 5.676,-1.803 8.624,1.594 v 0 c 1.842,2.466 1.237,7.844 -0.227,9.145 v 0 c 0.684,-1.139 0.195,-5.695 -1.986,-7.68"
             style="fill:url(#linearGradient92);stroke:none;stroke-width:0.35089859"
             id="path94"
             inkscape:connector-curvature="0" />
        </g>
      </g>
    </g>
    <g
       id="g248"
       clip-path="url(#clipPath252-6)"
       transform="matrix(-1.8182157,0,0,-1.7145491,228.17219,353.18406)"
       style="stroke-width:0.35089859">
      <g
         id="g254"
         style="stroke-width:0.35089859">
        <g
           id="g256"
           style="stroke-width:0.35089859">
          <path
             d="m 30.153,136.305 c -0.272,-2.567 -1.335,-7.3 -2.223,-10.129 v 0 c 1.088,-0.255 3.562,0.906 4.7,2.083 v 0 c 2.79,2.891 3.539,4.793 3.264,8.963 v 0 c -0.14,2.102 -0.15,4.208 1.086,6.005 v 0 c 0.524,0.76 1.374,1.552 2.093,2.283 v 0 c -0.158,0.014 -0.316,0.021 -0.472,0.021 v 0 c -4.421,0.001 -8.061,-5.572 -8.448,-9.226 m 2.938,2.623 c 0,0 3.105,-4.522 -0.393,-8.606 v 0 c 0,0 1.121,3.119 0.393,8.606"
             style="fill:url(#linearGradient272);stroke:none;stroke-width:0.35089859"
             id="path274"
             inkscape:connector-curvature="0" />
        </g>
      </g>
    </g>
    <g
       id="g574"
       clip-path="url(#clipPath578-0)"
       transform="matrix(-1.8182157,0,0,-1.7145491,228.17219,353.18406)"
       style="stroke-width:0.35089859">
      <g
         id="g580"
         style="stroke-width:0.35089859">
        <g
           id="g582"
           style="stroke-width:0.35089859">
          <path
             d="m 32.422,120.029 c 0.007,0.561 0.323,3.136 0.429,3.9 v 0 c -2.148,-0.077 -3.831,0.515 -4.555,1.324 v 0 c 0.597,-0.894 2.281,-3.538 4.126,-5.224"
             style="fill:url(#linearGradient598);stroke:none;stroke-width:0.35089859"
             id="path600"
             inkscape:connector-curvature="0" />
        </g>
      </g>
    </g>
    <g
       id="g604"
       clip-path="url(#clipPath608-4)"
       transform="matrix(-1.8182157,0,0,-1.7145491,228.17219,353.18406)"
       style="stroke-width:0.35089859">
      <g
         id="g610"
         transform="translate(100.5493,119.0971)"
         style="stroke-width:0.35089859">
        <path
           d="M 0,0 C 3.2,1.144 9.743,3.113 11.586,7.052 16.153,14.528 11.423,27.066 4.691,33.468 11.489,19.543 7.529,8.626 0,0"
           style="fill:#ce171e;fill-opacity:1;fill-rule:nonzero;stroke:none;stroke-width:0.35089859"
           id="path612"
           inkscape:connector-curvature="0" />
      </g>
    </g>
    <g
       id="g616"
       clip-path="url(#clipPath620-1)"
       transform="matrix(-1.8182157,0,0,-1.7145491,228.17219,353.18406)"
       style="stroke-width:0.35089859">
      <g
         id="g622"
         style="stroke-width:0.35089859">
        <g
           id="g624"
           style="stroke-width:0.35089859">
          <path
             d="m 100.451,118.212 c 6.981,-1.782 13.075,-2.463 16.264,1.86 v 0 c 1.796,2.436 -0.149,12.524 -1.832,15.197 v 0 c 0.396,-15.098 -8.514,-14.752 -14.432,-17.057"
             style="fill:url(#linearGradient640);stroke:none;stroke-width:0.35089859"
             id="path642"
             inkscape:connector-curvature="0" />
        </g>
      </g>
    </g>
    <g
       id="g646"
       clip-path="url(#clipPath650-5)"
       transform="matrix(-1.8182157,0,0,-1.7145491,228.17219,353.18406)"
       style="stroke-width:0.35089859">
      <g
         id="g652"
         style="stroke-width:0.35089859">
        <g
           id="g654"
           style="stroke-width:0.35089859">
          <path
             d="m 96.218,127.326 c 2.949,-3.397 5.792,-3.157 8.625,-1.594 v 0 c -3.451,0.455 -4.069,0.813 -6.412,3.059 v 0 c -2.18,1.985 -2.669,6.541 -1.985,7.68 v 0 c -1.465,-1.301 -2.069,-6.679 -0.228,-9.145"
             style="fill:url(#linearGradient670);stroke:none;stroke-width:0.35089859"
             id="path672"
             inkscape:connector-curvature="0" />
        </g>
      </g>
    </g>
    <g
       id="g676"
       clip-path="url(#clipPath680-1)"
       transform="matrix(-1.8182157,0,0,-1.7145491,228.17219,353.18406)"
       style="stroke-width:0.35089859">
      <g
         id="g682"
         style="stroke-width:0.35089859">
        <g
           id="g684"
           style="stroke-width:0.35089859">
          <path
             d="m 93.744,145.51 c 0.718,-0.731 1.569,-1.523 2.093,-2.283 v 0 c 1.235,-1.797 1.225,-3.903 1.086,-6.005 v 0 c -0.276,-4.17 0.473,-6.072 3.264,-8.963 v 0 c 1.137,-1.177 3.611,-2.338 4.699,-2.083 v 0 c -0.887,2.829 -1.95,7.562 -2.222,10.129 v 0 c -0.387,3.653 -4.027,9.226 -8.448,9.226 v 0 c -0.157,0 -0.314,-0.007 -0.472,-0.021 m 5.981,-6.582 c -0.728,-5.487 0.394,-8.606 0.394,-8.606 v 0 c -3.499,4.084 -0.394,8.606 -0.394,8.606"
             style="fill:url(#linearGradient700);stroke:none;stroke-width:0.35089859"
             id="path702"
             inkscape:connector-curvature="0" />
        </g>
      </g>
    </g>
    <g
       id="g706"
       clip-path="url(#clipPath710-2)"
       transform="matrix(-1.8182157,0,0,-1.7145491,228.17219,353.18406)"
       style="stroke-width:0.35089859">
      <g
         id="g712"
         transform="translate(89.8132,156.5186)"
         style="stroke-width:0.35089859">
        <path
           d="M 0,0 C 3.196,2.491 10.681,-3.722 12.042,-8.321 9.215,-3.899 5.487,-0.76 0,0 m 13.58,-19.503 c 0.561,-2.477 0.318,-4.421 1.847,-10.42 0.673,2.161 1.716,4.559 2.218,7.296 1.03,5.608 0.049,11.013 -2.528,16.101 -2.162,4.27 -5.135,7.999 -9.207,10.422 -2.9,1.726 -6.357,2.957 -9.897,1.835 -7.853,-2.49 -9.773,-11.034 -6.225,-17.138 2.515,-4.326 6.332,-4.955 9.844,-3.776 2.883,0.968 3.826,3.494 4.31,6.179 0.255,1.413 -1.137,2.476 -3.452,2.871 1.338,1.032 4.102,0.205 5.746,-1.258 5.725,-5.095 6.542,-8.569 7.344,-12.112"
           style="fill:#ce171e;fill-opacity:1;fill-rule:nonzero;stroke:none;stroke-width:0.35089859"
           id="path714"
           inkscape:connector-curvature="0" />
      </g>
    </g>
    <g
       id="g718"
       clip-path="url(#clipPath722-1)"
       transform="matrix(-1.8182157,0,0,-1.7145491,228.17219,353.18406)"
       style="stroke-width:0.35089859">
      <g
         id="g724"
         style="stroke-width:0.35089859">
        <g
           id="g726"
           style="stroke-width:0.35089859">
          <path
             d="m 99.966,123.929 c 0.106,-0.764 0.422,-3.339 0.429,-3.9 v 0 c 1.845,1.686 3.529,4.33 4.126,5.224 v 0 c -0.724,-0.809 -2.407,-1.401 -4.555,-1.324"
             style="fill:url(#linearGradient742);stroke:none;stroke-width:0.35089859"
             id="path744"
             inkscape:connector-curvature="0" />
        </g>
      </g>
    </g>
    <g
       id="g1376"
       clip-path="url(#clipPath1380-3)"
       transform="matrix(-1.8182157,0,0,-1.7145491,228.17219,353.18406)"
       style="stroke-width:0.35089859">
      <g
         id="g1382"
         style="stroke-width:0.35089859">
        <g
           id="g1384"
           style="stroke-width:0.35089859">
          <path
             d="m 66.87,134.968 -9.519,15.876 c -1.171,-11.653 -8.79,-12.495 -12.68,-12.137 v 0 l 13.389,-19.42 -0.015,10e-4 8.822,-13.105 0.003,0.004 0.003,-0.004 8.823,13.105 -0.016,-10e-4 13.388,19.42 c -4.353,-1.064 -13.481,0.897 -13.227,12.137 v 0 z"
             style="fill:url(#linearGradient1400);stroke:none;stroke-width:0.35089859"
             id="path1402"
             inkscape:connector-curvature="0" />
        </g>
      </g>
    </g>
    <path
       inkscape:connector-curvature="0"
       id="path286"
       style="fill:#ce171e;fill-opacity:1;fill-rule:nonzero;stroke:none;stroke-width:0.61955416"
       d="m 172.1951,97.969192 c -2.47461,-7.8835 -16.08396,-18.53772 -21.89498,-14.26674 9.97655,1.30308 16.75487,6.68501 21.89498,14.26674 m -10.55658,-1.59448 c -2.98915,-2.50844 -8.01468,-3.92637 -10.44746,-2.15518 4.20916,0.6753 6.74012,2.49805 6.27648,4.92074 -0.88005,4.603588 -2.59459,8.934498 -7.83651,10.594178 -6.38557,2.02318 -13.3257,0.94298 -17.89853,-6.47412 -6.45101,-10.465598 -2.96006,-25.114728 11.3184,-29.383968 6.4365,-1.92204 12.72205,0.18666 17.99489,3.14621 7.40376,4.1543 12.80931,10.54792 16.7403,17.86901 4.68555,8.725318 6.46922,17.990788 4.59825,27.606018 -0.91453,4.69264 -2.80913,8.80591 -4.03461,12.50934 -2.77821,-10.28565 -2.33822,-13.61869 -3.3582,-17.86567 -1.45826,-6.0729 -2.9437,-12.02924 -13.35301,-20.766558" />
  </g>
</svg>
